<?xml version="1.0" standalone="no"?>
<!DOCTYPE svg PUBLIC "-//W3C//DTD SVG 20010904//EN"
 "http://www.w3.org/TR/2001/REC-SVG-20010904/DTD/svg10.dtd">
<svg version="1.0" xmlns="http://www.w3.org/2000/svg"
 width="480.000000pt" height="480.000000pt" viewBox="0 0 480.000000 480.000000"
 preserveAspectRatio="xMidYMid meet">
<metadata>
Created by potrace 1.11, written by Peter Selinger 2001-2013
</metadata>
<g transform="translate(0.000000,480.000000) scale(0.100000,-0.100000)"
fill="#000000" stroke="none">
<path d="M2116 4775 c-53 -19 -87 -45 -110 -85 -22 -37 -19 -8 -85 -825 -23
-275 -45 -524 -51 -553 -13 -74 -52 -156 -93 -195 -56 -52 -99 -216 -162 -617
-19 -124 -42 -265 -49 -313 -25 -156 -201 -483 -360 -669 l-67 -78 -72 0 -72
-1 -475 -262 -475 -263 -3 -457 -2 -457 805 0 805 0 152 227 c163 245 177 276
178 404 0 53 2 59 40 93 22 20 48 36 58 36 34 1 123 56 178 110 50 50 101 136
141 240 10 24 10 24 23 -15 24 -78 82 -173 135 -226 54 -53 144 -108 177 -109
10 0 36 -16 58 -36 38 -34 40 -40 40 -93 1 -128 15 -159 178 -404 l152 -227
805 0 805 0 -2 457 -3 457 -475 263 -475 262 -72 1 -72 0 -67 78 c-98 114
-176 238 -265 418 -53 107 -83 180 -90 220 -5 32 -25 163 -45 289 -67 435
-114 619 -171 672 -41 39 -79 120 -93 194 -5 30 -32 340 -60 689 -29 349 -56
648 -62 663 -17 44 -46 76 -91 98 -51 26 -142 35 -190 20 -45 -15 -104 -82
-113 -128 -9 -48 -21 -49 -34 -3 -13 49 -63 108 -107 126 -41 18 -117 17 -167
-1z m165 -28 c50 -33 81 -84 77 -127 l-3 -35 -96 4 c-100 3 -128 -4 -212 -57
-24 -15 -29 -15 -37 -2 -30 47 2 153 60 198 61 47 157 56 211 19z m420 -4 c74
-38 99 -78 99 -159 0 -35 -5 -66 -10 -69 -6 -4 -26 5 -45 20 -63 48 -101 57
-205 54 l-95 -4 -3 29 c-9 77 73 156 164 156 24 0 62 -11 95 -27z m-415 -280
c12 -8 31 -31 41 -51 17 -35 18 -101 20 -1447 2 -1606 2 -1598 -69 -1767 -11
-27 -27 -48 -34 -48 -8 0 -14 -4 -14 -8 0 -11 -239 -253 -328 -332 -41 -36
-82 -81 -92 -101 -10 -19 -39 -58 -63 -85 l-45 -49 -74 0 c-66 0 -83 4 -154
39 -148 73 -253 210 -299 390 -37 139 -35 210 5 289 18 34 36 64 39 67 4 3 24
33 46 67 22 35 43 63 46 63 3 0 28 36 55 81 27 44 63 102 81 128 99 150 181
371 203 546 60 489 102 705 156 807 74 140 103 207 128 298 30 111 62 270 71
355 3 33 17 137 31 230 13 94 33 232 44 309 11 79 27 154 38 175 33 65 107 84
168 44z m352 7 c55 -34 66 -75 122 -480 57 -414 70 -494 106 -623 35 -126 69
-211 104 -261 34 -50 44 -74 71 -166 23 -75 78 -410 109 -650 13 -105 32 -199
51 -259 33 -104 107 -259 167 -348 21 -32 47 -72 58 -90 10 -17 65 -100 122
-183 107 -159 108 -162 103 -270 -2 -57 -28 -173 -49 -225 -26 -61 -105 -176
-148 -215 -85 -77 -224 -136 -301 -127 -37 4 -52 13 -93 55 -26 27 -51 59 -55
71 -7 23 -65 83 -151 156 -32 28 -116 107 -185 176 -150 150 -168 183 -195
349 -17 107 -19 211 -22 1519 -2 992 0 1420 8 1457 13 61 41 101 84 120 42 18
56 17 94 -6z"/>
</g>
</svg>
